HIERARCHY
ROOT hip
{
	OFFSET 0.000000 0.000000 0.000000 
	CHANNELS 6 Xposition Yposition Zposition Xrotation Zrotation Yrotation
	JOINT abdomen
	{
		OFFSET 0.000000 3.402643 0.000000 
		CHANNELS 3 Xrotation Zrotation Yrotation
		JOINT chest
		{
			OFFSET 0.000000 8.438565 -0.680529 
			CHANNELS 3 Xrotation Zrotation Yrotation
			JOINT neck
			{
				OFFSET 0.000000 10.207942 -0.272212 
				CHANNELS 3 Xrotation Zrotation Yrotation
				JOINT head
				{
					OFFSET 0.000000 3.130431 0.000000 
					CHANNELS 3 Xrotation Zrotation Yrotation
					End Site
					{
						OFFSET 0.000000 3.130435 0.000000 
					}
				}
			}
			JOINT lCollar
			{
				OFFSET 3.470700 6.669187 -0.816635 
				CHANNELS 3 Yrotation Zrotation Xrotation
				JOINT lShldr
				{
					OFFSET 3.198488 0.000000 0.000000 
					CHANNELS 3 Zrotation Yrotation Xrotation
					JOINT lForeArm
					{
						OFFSET 10.139888 0.000000 0.000000 
						CHANNELS 3 Yrotation Zrotation Xrotation
						JOINT lHand
						{
							OFFSET 8.370511 0.000000 0.000000 
							CHANNELS 3 Zrotation Yrotation Xrotation
							End Site
							{
								OFFSET 4.083176 0.000000 0.000000 
							}
						}
					}
				}
			}
			JOINT rCollar
			{
				OFFSET -3.470700 6.669187 -0.816635 
				CHANNELS 3 Yrotation Zrotation Xrotation
				JOINT rShldr
				{
					OFFSET -3.198488 0.000000 0.000000 
					CHANNELS 3 Zrotation Yrotation Xrotation
					JOINT rForeArm
					{
						OFFSET -10.139888 0.000000 0.000000 
						CHANNELS 3 Yrotation Zrotation Xrotation
						JOINT rHand
						{
							OFFSET -8.370511 0.000000 0.000000 
							CHANNELS 3 Zrotation Yrotation Xrotation
							End Site
							{
								OFFSET -4.083176 0.000000 0.000000 
							}
						}
					}
				}
			}
		}
	}
	JOINT lThigh
	{
		OFFSET 5.308129 -1.633274 1.361059 
		CHANNELS 3 Xrotation Zrotation Yrotation
		JOINT lShin
		{
			OFFSET -2.041588 -20.007561 0.000000 
			CHANNELS 3 Xrotation Zrotation Yrotation
			JOINT lFoot
			{
				OFFSET 0.000000 -19.190928 -1.224953 
				CHANNELS 3 Xrotation Yrotation Zrotation
				End Site
				{
					OFFSET 0.000000 -2.449906 4.627600 
				}
			}
		}
	}
	JOINT rThigh
	{
		OFFSET -5.308129 -1.633274 1.361059 
		CHANNELS 3 Xrotation Zrotation Yrotation
		JOINT rShin
		{
			OFFSET 2.041588 -20.007561 0.000000 
			CHANNELS 3 Xrotation Zrotation Yrotation
			JOINT rFoot
			{
				OFFSET 0.000000 -19.190928 -1.224953 
				CHANNELS 3 Xrotation Yrotation Zrotation
				End Site
				{
					OFFSET 0.000000 -2.449906 4.627600 
				}
			}
		}
	}
}
MOTION
Frames: 13
Frame Time: 0.033333
21.353739 42.187901 56.969322 -10.352184 7.033248 7.410144 37.408020 -2.985744 4.880558 -20.839844 0.000000 0.000000 23.303225 5.153337 17.581726 -2.520846 -1.255050 0.218350 -4.754609 -0.109183 -0.002653 -88.073456 -15.955267 -3.758072 -124.468597 6.094913 16.360302 -9.943837 -31.456030 22.423008 4.754609 0.109183 -0.002672 69.647591 13.485655 16.240107 120.086052 32.358841 -5.898521 -17.616077 23.850080 13.060422 -10.116261 24.183887 12.703969 21.303213 -4.847713 -1.676307 6.609295 -4.743376 -19.005877 0.516919 -37.968273 -22.192518 42.226303 2.239031 -2.448616 -12.259885 -10.823565 16.754326 
21.637024 42.310757 57.029232 -10.444266 6.281755 3.347020 37.309975 -3.453016 3.997139 -20.839844 0.000000 0.000000 23.671101 4.749668 21.325001 -2.520846 -1.255050 0.218350 -4.754609 -0.109183 -0.002653 -84.446266 -15.984365 -6.338949 -123.868141 7.298726 16.959040 -9.029144 -31.789186 22.069380 4.754609 0.109183 -0.002672 69.707481 10.169587 16.176214 120.118477 33.806168 -6.682578 -16.252895 24.457546 13.068657 -8.486442 24.909950 13.468855 21.958799 -4.823584 -0.559283 5.639514 -2.748647 -19.854124 -1.895375 -37.693977 -20.385948 41.051250 1.703075 -1.065534 -11.461280 -9.472358 16.441475 
21.963310 42.481846 57.128738 -9.812728 4.975338 -1.698529 36.454937 -4.228931 3.261160 -20.839844 0.000000 0.000000 24.500700 4.668291 25.811455 -2.520846 -1.255050 0.218350 -4.754609 -0.109183 -0.002653 -77.047737 -16.492760 -10.515448 -123.370674 8.791499 18.799587 -5.659133 -33.232655 22.769798 4.754609 0.109183 -0.002672 69.361305 5.857518 15.242493 119.652275 34.873512 -7.419994 -12.566799 24.561983 12.923446 -6.904486 26.038506 14.553359 22.438934 -4.804035 1.018957 4.795753 -0.321660 -20.674553 -5.743991 -36.329494 -17.169247 39.475353 0.990494 0.259466 -10.241597 -8.429320 15.959926 
22.230499 42.674763 57.224689 -8.725022 3.243360 -7.694497 35.026428 -5.285830 2.333178 -20.839844 0.000000 0.000000 26.405903 4.939978 31.035618 -2.520846 -1.255050 0.218350 -4.754609 -0.109183 -0.002653 -67.033340 -17.901991 -15.490833 -122.018654 10.501415 20.445972 -0.474116 -33.402409 22.653797 4.754609 0.109183 -0.002672 69.506058 1.093683 13.742890 117.888176 35.489162 -7.178012 -6.456837 24.204872 13.161741 -4.873819 27.558765 15.985856 22.501177 -4.736372 2.951534 4.229989 2.698083 -21.942888 -10.487940 -33.420036 -12.554827 37.816719 -0.078122 1.635243 -8.894923 -7.984785 15.074533 
22.385241 42.843815 57.277996 -8.253283 1.024438 -13.312626 34.004711 -6.235635 -0.206964 -20.839844 0.000000 0.000000 29.734026 5.752066 37.304905 -2.520846 -1.255050 0.218350 -4.754609 -0.109183 -0.002653 -60.677132 -21.108898 -18.215282 -120.214020 11.838201 18.135820 -0.561483 -28.701374 18.481289 4.754609 0.109183 -0.002672 71.192558 -3.009493 12.484548 114.821449 35.879238 -6.356853 -0.100013 22.930481 12.824612 -1.895092 29.434320 17.744257 22.436792 -4.510749 4.379651 3.761862 5.456153 -23.310635 -13.279144 -29.855474 -9.031708 36.155499 -0.644337 2.860731 -7.752575 -7.161686 13.913711 
22.415756 42.934696 57.286629 -8.667169 -1.950147 -16.568195 33.858051 -6.663536 -5.790531 -20.839844 0.000000 0.000000 34.452427 6.628189 44.984055 -2.520846 -1.255050 0.218350 -4.754609 -0.109183 -0.002653 -61.858727 -26.239349 -16.999374 -120.125626 12.500869 12.406516 -8.025263 -17.123960 9.853480 4.754609 0.109183 -0.002672 74.855858 -5.651229 12.010077 112.085457 36.028793 -6.508525 4.738431 20.497416 10.745239 1.112110 32.108009 19.816944 22.905487 -4.041507 4.263204 3.141770 6.783634 -23.661745 -12.704086 -26.538847 -7.922839 34.682426 -0.068337 3.122798 -7.050101 -5.878715 13.117350 
22.303150 42.878345 57.307438 -9.551554 -5.210366 -18.177343 34.340588 -7.651111 -13.388979 -20.839844 0.000000 0.000000 38.917969 7.270664 53.120266 -2.520846 -1.255050 0.218350 -4.754609 -0.109183 -0.002653 -66.446114 -29.521885 -13.134780 -120.712036 11.482944 9.660617 -9.489947 -9.246135 5.568250 4.754609 0.109183 -0.002672 79.883728 -6.862745 12.403421 111.087624 35.980694 -7.402930 7.046497 18.847864 8.634259 3.797776 35.399281 22.251366 24.179428 -3.457012 3.093595 2.301971 7.011497 -23.243801 -10.788866 -23.546782 -7.715682 34.149803 0.781226 2.800670 -7.095449 -4.875180 12.826775 
22.143944 42.621967 57.361763 -10.683511 -8.082026 -20.581673 35.067398 -9.368436 -18.848175 -20.839844 0.000000 0.000000 41.106621 7.467093 58.581059 -2.520846 -1.255050 0.218350 -4.754609 -0.109183 -0.002653 -69.754601 -29.807957 -9.768653 -118.811211 9.621373 8.456379 -8.160012 -15.545009 6.443748 4.754609 0.109183 -0.002672 82.702423 -6.968634 13.419398 112.309563 36.360538 -7.770821 5.893816 20.185150 9.372693 6.884033 38.095703 24.622429 26.551796 -2.732128 2.137383 1.051787 7.832633 -22.958385 -9.852960 -21.140488 -6.961545 35.085903 1.005712 3.077409 -7.807113 -4.064698 12.851910 
22.075809 42.223438 57.406441 -11.509141 -10.377755 -24.033129 35.579781 -10.510256 -19.614935 -20.839844 0.000000 0.000000 40.748268 7.064690 59.860638 -2.520846 -1.255050 0.218350 -4.754609 -0.109183 -0.002653 -70.280891 -29.167658 -9.045255 -116.698029 8.887662 7.305798 -10.148172 -20.436655 6.713678 4.754609 0.109183 -0.002672 81.880386 -5.824151 14.359230 115.049881 36.594006 -7.865433 3.223304 22.774599 11.782488 9.651055 39.671013 26.172009 29.816261 -1.768678 1.859481 -0.415958 9.652846 -22.722925 -10.172629 -19.718288 -6.255139 36.752922 1.005862 4.026216 -8.322666 -2.581010 12.947444 
22.125816 41.890915 57.424717 -11.694697 -11.539490 -26.633825 35.822079 -10.561587 -17.248503 -20.839844 0.000000 0.000000 39.238232 6.438495 58.799229 -2.520846 -1.255050 0.218350 -4.754609 -0.109183 -0.002653 -68.556679 -28.748495 -10.328853 -116.238113 9.294683 7.816260 -10.565782 -20.491776 7.426562 4.754609 0.109183 -0.002672 80.024055 -3.863310 14.909835 116.812576 36.268829 -7.213508 1.307594 24.754587 14.109115 10.871868 40.247303 26.712749 32.438416 -1.133896 2.017187 -1.539108 11.125271 -22.621445 -11.072267 -19.643349 -6.427712 38.189014 1.269532 4.796419 -8.694152 -0.949898 12.959740 
22.211666 41.841156 57.426743 -11.633628 -11.024611 -26.837700 35.719833 -10.010274 -14.159705 -20.839844 0.000000 0.000000 37.498928 6.575286 56.933609 -2.520846 -1.255050 0.218350 -4.754609 -0.109183 -0.002653 -65.381226 -27.703489 -12.826303 -116.696388 10.073525 9.430006 -10.038745 -19.520264 9.019035 4.754609 0.109183 -0.002672 78.995003 -1.857226 15.509786 116.350769 36.257740 -5.662195 0.245419 25.499245 15.815074 10.287222 39.749996 26.236950 32.912544 -1.260556 2.210074 -1.875785 11.207591 -22.590784 -11.500910 -20.881317 -7.322926 38.464256 1.591774 4.877748 -8.881053 -0.314775 13.101224 
22.270102 42.068600 57.425228 -11.651288 -9.060683 -24.175385 35.402317 -9.138735 -10.992265 -20.839844 0.000000 0.000000 35.289371 7.523145 53.793907 -2.520846 -1.255050 0.218350 -4.754609 -0.109183 -0.002653 -62.871353 -25.845364 -14.846660 -117.592896 10.455141 12.456638 -11.099357 -18.648043 13.176249 4.754609 0.109183 -0.002672 78.510635 -0.372166 16.160017 115.082703 36.704945 -4.048888 -1.057748 24.938278 16.905207 8.132240 38.395370 24.774296 31.288816 -1.934816 2.130307 -1.201714 9.754858 -22.431324 -10.828040 -23.019623 -8.672699 37.576172 1.738224 4.165690 -8.686963 -1.175683 13.456196 
22.282335 42.421429 57.400860 -11.563779 -6.248549 -18.909901 35.291061 -7.941752 -7.445407 -20.839844 0.000000 0.000000 32.205986 8.626412 48.817112 -2.520846 -1.255050 0.218350 -4.754609 -0.109183 -0.002653 -62.536316 -24.205416 -15.199985 -118.342400 10.223772 17.334475 -13.796684 -19.354874 21.191278 4.754609 0.109183 -0.002672 77.513962 1.395752 16.816130 114.680283 37.038036 -3.077157 -3.548077 24.547602 17.597158 4.516441 36.437260 22.428406 28.434435 -2.715328 1.677340 0.335919 7.281404 -21.978693 -9.061101 -25.509781 -10.480141 36.252048 1.849405 2.793354 -8.337461 -3.037686 13.800824 
